<svg width="64" height="64" viewBox="0 0 64 64" fill="none" xmlns="http://www.w3.org/2000/svg">
<circle cx="32" cy="32" r="32" fill="#1165F6"/>
<path d="M18.0869 20.8696V21.9827V43.1305H47.3043V20.8696H18.0869ZM20.3344 23.0957H45.0568V24.2348C44.4936 24.7209 35.0176 32.8997 34.1991 33.6066C33.5842 34.1358 32.9794 34.2262 32.6956 34.2262C32.4131 34.2262 31.806 34.1371 31.19 33.6066C30.3769 32.9056 20.8978 24.7213 20.3344 24.2348V23.0957ZM20.3344 27.1892C21.8266 28.4776 23.7113 30.1022 26.2648 32.3066L20.3344 36.9522V27.1892ZM45.0568 27.1892V36.9544L39.1242 32.3088C41.6778 30.1047 43.563 28.4785 45.0568 27.1892ZM27.9877 33.7957C28.4983 34.2365 29.5843 35.1743 29.715 35.287C30.7846 36.208 31.9308 36.4522 32.6956 36.4522C33.4588 36.4522 34.6062 36.2097 35.6762 35.287V35.2848C35.8059 35.1729 36.8921 34.2352 37.4013 33.7957L45.0568 39.7914V40.9044H20.3344V39.7914L27.9877 33.7957Z" fill="#25C7D9"/>
</svg>
